# xmcd CD database file
#
# Track frame offsets:
#	150
#	11460
#	35160
#	54695
#	72830
#	97740
#	104392
#	119270
#
# Disc length: 1723 seconds
#
# Revision: 0
# Processed by: cddbd v1.5.2PL0 Copyright (c) Steve Scherf et al.
# Submitted via: CDex 1.51
#
DISCID=6306b908
DTITLE=Fiddle Me Please - I Said Please
DYEAR=1999
DGENRE=Country
TTITLE0=Batton Rouge
TTITLE1=Copperhead Road
TTITLE2=Homeward Bound
TTITLE3=Cherry Cherry
TTITLE4=Heart Of The Matter
TTITLE5=Amazing Grace
TTITLE6=The Devil Went Down To Georgia
TTITLE7=Till There Was You
EXTD=
EXTT0=
EXTT1=
EXTT2=
EXTT3=
EXTT4=
EXTT5=
EXTT6=
EXTT7=
PLAYORDER=
